<svg width="22" height="20" viewBox="0 0 22 20" fill="none" xmlns="http://www.w3.org/2000/svg">
<path d="M10.0819 1.12723C10.4293 0.322174 11.5708 0.322174 11.9182 1.12723L14.0982 6.17911C14.2453 6.52 14.5692 6.75132 14.9393 6.77993L20.53 7.21192C21.427 7.28123 21.7834 8.40729 21.0896 8.98008L16.8852 12.4514C16.5887 12.6962 16.4588 13.0894 16.5512 13.4627L17.8451 18.6911C18.0579 19.5509 17.1304 20.2424 16.3671 19.7931L11.5073 16.9321C11.1942 16.7478 10.8058 16.7478 10.4927 16.9321L5.63295 19.7931C4.86965 20.2424 3.94213 19.5509 4.15492 18.6911L5.44886 13.4627C5.54124 13.0894 5.41137 12.6962 5.11481 12.4514L0.910428 8.98008C0.216669 8.40729 0.573073 7.28123 1.47006 7.21192L7.06071 6.77993C7.43088 6.75132 7.75473 6.52 7.90183 6.17911L10.0819 1.12723Z" fill="#04B90B"/>
</svg>
