<svg width="136" height="24" viewBox="0 0 136 24" fill="none" xmlns="http://www.w3.org/2000/svg">
<path d="M11.0818 3.12723C11.4292 2.32217 12.5707 2.32217 12.9181 3.12723L15.0982 8.17911C15.2453 8.52 15.5691 8.75132 15.9393 8.77993L21.5299 9.21192C22.4269 9.28123 22.7833 10.4073 22.0896 10.9801L17.8852 14.4514C17.5886 14.6962 17.4588 15.0894 17.5511 15.4627L18.8451 20.6911C19.0579 21.5509 18.1303 22.2424 17.367 21.7931L12.5073 18.9321C12.1942 18.7478 11.8058 18.7478 11.4927 18.9321L6.63292 21.7931C5.86962 22.2424 4.9421 21.5509 5.15489 20.6911L6.44882 15.4627C6.54121 15.0894 6.41134 14.6962 6.11478 14.4514L1.9104 10.9801C1.21664 10.4073 1.57304 9.28123 2.47003 9.21192L8.06068 8.77993C8.43085 8.75132 8.7547 8.52 8.9018 8.17911L11.0818 3.12723Z" fill="#04B90B"/>
<path d="M39.0818 3.12723C39.4292 2.32217 40.5707 2.32217 40.9181 3.12723L43.0982 8.17911C43.2453 8.52 43.5691 8.75132 43.9393 8.77993L49.5299 9.21192C50.4269 9.28123 50.7833 10.4073 50.0896 10.9801L45.8852 14.4514C45.5886 14.6962 45.4588 15.0894 45.5511 15.4627L46.8451 20.6911C47.0579 21.5509 46.1303 22.2424 45.367 21.7931L40.5073 18.9321C40.1942 18.7478 39.8058 18.7478 39.4927 18.9321L34.6329 21.7931C33.8696 22.2424 32.9421 21.5509 33.1549 20.6911L34.4488 15.4627C34.5412 15.0894 34.4113 14.6962 34.1148 14.4514L29.9104 10.9801C29.2166 10.4073 29.573 9.28123 30.47 9.21192L36.0607 8.77993C36.4308 8.75132 36.7547 8.52 36.9018 8.17911L39.0818 3.12723Z" fill="#04B90B"/>
<path d="M67.0818 3.12723C67.4292 2.32217 68.5707 2.32217 68.9181 3.12723L71.0982 8.17911C71.2453 8.52 71.5691 8.75132 71.9393 8.77993L77.5299 9.21192C78.4269 9.28123 78.7833 10.4073 78.0896 10.9801L73.8852 14.4514C73.5886 14.6962 73.4588 15.0894 73.5511 15.4627L74.8451 20.6911C75.0579 21.5509 74.1303 22.2424 73.367 21.7931L68.5073 18.9321C68.1942 18.7478 67.8058 18.7478 67.4927 18.9321L62.6329 21.7931C61.8696 22.2424 60.9421 21.5509 61.1549 20.6911L62.4488 15.4627C62.5412 15.0894 62.4113 14.6962 62.1148 14.4514L57.9104 10.9801C57.2166 10.4073 57.573 9.28123 58.47 9.21192L64.0607 8.77993C64.4308 8.75132 64.7547 8.52 64.9018 8.17911L67.0818 3.12723Z" fill="#04B90B"/>
<path d="M95.0818 3.12723C95.4292 2.32217 96.5707 2.32217 96.9181 3.12723L99.0982 8.17911C99.2453 8.52 99.5691 8.75132 99.9393 8.77993L105.53 9.21192C106.427 9.28123 106.783 10.4073 106.09 10.9801L101.885 14.4514C101.589 14.6962 101.459 15.0894 101.551 15.4627L102.845 20.6911C103.058 21.5509 102.13 22.2424 101.367 21.7931L96.5073 18.9321C96.1942 18.7478 95.8058 18.7478 95.4927 18.9321L90.6329 21.7931C89.8696 22.2424 88.9421 21.5509 89.1549 20.6911L90.4488 15.4627C90.5412 15.0894 90.4113 14.6962 90.1148 14.4514L85.9104 10.9801C85.2166 10.4073 85.573 9.28123 86.47 9.21192L92.0607 8.77993C92.4308 8.75132 92.7547 8.52 92.9018 8.17911L95.0818 3.12723Z" fill="#04B90B"/>
<path d="M123.082 3.12723C123.429 2.32217 124.571 2.32217 124.918 3.12723L127.098 8.17911C127.245 8.52 127.569 8.75132 127.939 8.77993L133.53 9.21192C134.427 9.28123 134.783 10.4073 134.09 10.9801L129.885 14.4514C129.589 14.6962 129.459 15.0894 129.551 15.4627L130.845 20.6911C131.058 21.5509 130.13 22.2424 129.367 21.7931L124.507 18.9321C124.194 18.7478 123.806 18.7478 123.493 18.9321L118.633 21.7931C117.87 22.2424 116.942 21.5509 117.155 20.6911L118.449 15.4627C118.541 15.0894 118.411 14.6962 118.115 14.4514L113.91 10.9801C113.217 10.4073 113.573 9.28123 114.47 9.21192L120.061 8.77993C120.431 8.75132 120.755 8.52 120.902 8.17911L123.082 3.12723Z" fill="#04B90B"/>
</svg>
